<?xml version="1.0" encoding="UTF-8" standalone="no"?>
<svg
   xmlns:dc="http://purl.org/dc/elements/1.1/"
   xmlns:cc="http://creativecommons.org/ns#"
   xmlns:rdf="http://www.w3.org/1999/02/22-rdf-syntax-ns#"
   xmlns:svg="http://www.w3.org/2000/svg"
   xmlns="http://www.w3.org/2000/svg"
   viewBox="0 0 25 25"
   height="25"
   width="25"
   xml:space="preserve"
   id="svg2"
   version="1.1"><metadata
     id="metadata8"><rdf:RDF><cc:Work
         rdf:about=""><dc:format>image/svg+xml</dc:format><dc:type
           rdf:resource="http://purl.org/dc/dcmitype/StillImage" /></cc:Work></rdf:RDF></metadata><defs
     id="defs6"><clipPath
       id="clipPath18"
       clipPathUnits="userSpaceOnUse"><path
         id="path16"
         d="M 0,394.02 H 280.63 V 0 H 0 Z" /></clipPath></defs><g
     transform="matrix(1.3333333,0,0,-1.3333333,0,525.36)"
     id="g10"><g
       id="g12"><g
         clip-path="url(#clipPath18)"
         id="g14"><g
           transform="translate(4.4712,390.4448)"
           id="g20"><path
             id="path22"
             style="fill:#000000;fill-opacity:1;fill-rule:evenodd;stroke:none"
             d="m 0,0 c -1,-1.27 0.08,-5.16 1.28,-6.67 0,0 1.74,-2.27 2.7,-3.55 0.94,-1.27 1.87,-2.41 2.43,-2.59 1.12,-0.38 2.88,1 3,2 0.09,0.75 -1.69,2.52 -2.99,3.87 1.56,2.14 3.08,4.24 3.99,5.13 0,0 0.75,1 0,2 C 10.17,0.5 9.22,0.64 7.66,-0.56 6.56,-1.41 5.26,-2.58 3.98,-3.82 2.68,-1.98 0.96,0.27 0,0 m 1.41,-12.81 c 0.43,0 1.4,1.08 2.57,2.59 -0.96,1.28 -2.7,3.55 -2.7,3.55 -1.63,-1.83 -2.83,-3.47 -2.87,-4.14 -0.07,-1.27 1.75,-2 3,-2" /></g></g></g></g></svg>